<svg width="42" height="43" viewBox="0 0 42 43" fill="none" xmlns="http://www.w3.org/2000/svg">
<path d="M22 13.6364C22.5014 13.6364 22.9979 13.5376 23.4612 13.3457C23.9244 13.1538 24.3453 12.8726 24.6999 12.518C25.0544 12.1635 25.3357 11.7426 25.5275 11.2793C25.7194 10.8161 25.8182 10.3196 25.8182 9.81818C25.8182 9.31677 25.7194 8.82027 25.5275 8.35703C25.3357 7.89378 25.0544 7.47287 24.6999 7.11832C24.3453 6.76377 23.9244 6.48252 23.4612 6.29064C22.9979 6.09876 22.5014 6 22 6C20.9874 6 20.0162 6.40227 19.3001 7.11832C18.5841 7.83437 18.1818 8.80554 18.1818 9.81818C18.1818 10.8308 18.5841 11.802 19.3001 12.518C20.0162 13.2341 20.9874 13.6364 22 13.6364ZM32.1818 21.2727C33.1945 21.2727 34.1656 20.8705 34.8817 20.1544C35.5977 19.4384 36 18.4672 36 17.4545C36 16.4419 35.5977 15.4707 34.8817 14.7547C34.1656 14.0386 33.1945 13.6364 32.1818 13.6364C31.1692 13.6364 30.198 14.0386 29.482 14.7547C28.7659 15.4707 28.3636 16.4419 28.3636 17.4545C28.3636 18.4672 28.7659 19.4384 29.482 20.1544C30.198 20.8705 31.1692 21.2727 32.1818 21.2727ZM15.6364 18.7273C15.6364 19.7399 15.2341 20.7111 14.518 21.4271C13.802 22.1432 12.8308 22.5455 11.8182 22.5455C10.8055 22.5455 9.83437 22.1432 9.11832 21.4271C8.40227 20.7111 8 19.7399 8 18.7273C8 17.7146 8.40227 16.7435 9.11832 16.0274C9.83437 15.3114 10.8055 14.9091 11.8182 14.9091C12.8308 14.9091 13.802 15.3114 14.518 16.0274C15.2341 16.7435 15.6364 17.7146 15.6364 18.7273ZM16.9091 34C17.9217 34 18.8929 33.5977 19.609 32.8817C20.325 32.1656 20.7273 31.1945 20.7273 30.1818C20.7273 29.1692 20.325 28.198 19.609 27.482C18.8929 26.7659 17.9217 26.3636 16.9091 26.3636C15.8964 26.3636 14.9253 26.7659 14.2092 27.482C13.4932 28.198 13.0909 29.1692 13.0909 30.1818C13.0909 31.1945 13.4932 32.1656 14.2092 32.8817C14.9253 33.5977 15.8964 34 16.9091 34Z" fill="white"/>
<path d="M42 21.5C42 29.9656 37.1017 28.4472 32.6366 27.0631C29.9775 26.2381 27.4706 25.4587 26.25 26.875C24.6671 28.7106 25.0031 31.7636 25.3286 34.7225C25.7933 38.9553 26.2395 43 21 43C16.8466 43 12.7865 41.739 9.33303 39.3766C5.8796 37.0141 3.18798 33.6563 1.59854 29.7277C0.0090989 25.7991 -0.406771 21.4762 0.403518 17.3056C1.21381 13.135 3.21386 9.30404 6.15077 6.29721C9.08767 3.29038 12.8295 1.24271 16.9031 0.413126C20.9767 -0.416456 25.1991 0.00931554 29.0364 1.6366C32.8736 3.26388 36.1534 6.01959 38.4609 9.55525C40.7684 13.0909 42 17.2477 42 21.5ZM21 40.3125C22.6039 40.3125 22.7168 39.8529 22.7194 39.8395C22.9241 39.4471 23.0449 38.5925 22.9031 36.8322C22.8664 36.3807 22.806 35.8378 22.743 35.2439C22.6065 33.9969 22.449 32.5429 22.4333 31.3148C22.407 29.4147 22.6511 26.9879 24.2813 25.0959C25.2499 23.9752 26.4994 23.5425 27.6203 23.435C28.6808 23.3329 29.7518 23.5049 30.6653 23.7145C31.5656 23.9214 32.508 24.2144 33.3559 24.4778L33.4294 24.4993C34.3376 24.7814 35.1566 25.0341 35.931 25.2141C37.6451 25.6119 38.304 25.4372 38.5324 25.2786C38.6321 25.2088 39.375 24.6202 39.375 21.5C39.375 17.7792 38.2973 14.142 36.2783 11.0483C34.2592 7.95464 31.3894 5.5434 28.0318 4.11952C24.6742 2.69565 20.9796 2.3231 17.4152 3.04899C13.8508 3.77487 10.5767 5.56659 8.00692 8.19756C5.43713 10.8285 3.68708 14.1806 2.97808 17.8299C2.26908 21.4791 2.63296 25.2617 4.02372 28.6992C5.41448 32.1368 7.76965 35.0749 10.7914 37.142C13.8132 39.2092 17.3658 40.3125 21 40.3125Z" fill="white"/>
</svg>
