<svg width="42" height="47" viewBox="0 0 42 47" fill="none" xmlns="http://www.w3.org/2000/svg">
<path d="M1.79997 26.2L0.53699 25.2177C0.041604 25.8546 0.0980171 26.7608 0.668606 27.3314L1.79997 26.2ZM24.2 10.2L25.3313 11.3314L26.4627 10.2L25.3313 9.06863L24.2 10.2ZM17.8 16.6L16.6686 17.7314L17.8 18.8627L18.9313 17.7314L17.8 16.6ZM3.39997 46.9999H38.6V43.7999H3.39997V46.9999ZM22.1313 44.2687L2.93133 25.0686L0.668606 27.3314L19.8686 46.5314L22.1313 44.2687ZM3.06294 27.1823L14.2629 12.7823L11.737 10.8177L0.53699 25.2177L3.06294 27.1823ZM16.6686 4.93135L23.0686 11.3314L25.3313 9.06863L18.9313 2.66863L16.6686 4.93135ZM23.0686 9.06863L16.6686 15.4686L18.9313 17.7314L25.3313 11.3314L23.0686 9.06863ZM18.9313 15.4686L12.5313 9.06863L10.2686 11.3314L16.6686 17.7314L18.9313 15.4686ZM12.5313 4.93135C13.6738 3.78889 15.5261 3.78889 16.6686 4.93135L18.9313 2.66863C16.5392 0.276471 12.6607 0.276471 10.2686 2.66863L12.5313 4.93135ZM10.2686 2.66863C7.87645 5.06076 7.87645 8.93923 10.2686 11.3314L12.5313 9.06863C11.3889 7.92614 11.3889 6.07382 12.5313 4.93135L10.2686 2.66863ZM20.305 11.8323L19.4322 12.705L21.695 14.9677L22.5677 14.095L20.305 11.8323ZM22.5677 33.2949L40.895 14.9677L38.6323 12.705L20.305 31.0322L22.5677 33.2949ZM40.895 14.9677C41.7609 14.1019 41.7609 12.6981 40.895 11.8323L38.6323 14.095C38.2483 13.7112 38.2483 13.0888 38.6323 12.705L40.895 14.9677ZM19.4322 33.2949C20.2981 34.1609 21.7019 34.1609 22.5677 33.2949L20.305 31.0322C20.6888 30.6484 21.3111 30.6484 21.695 31.0322L19.4322 33.2949ZM19.4322 12.705C13.7465 18.3907 13.7465 27.6092 19.4322 33.2949L21.695 31.0322C17.2589 26.5962 17.2589 19.4038 21.695 14.9677L19.4322 12.705ZM22.5677 14.095C27.0038 9.65891 34.1961 9.65891 38.6323 14.095L40.895 11.8323C35.2092 6.14649 25.9908 6.14649 20.305 11.8323L22.5677 14.095Z" fill="white"/>
</svg>
