<svg width="32" height="40" viewBox="0 0 32 40" fill="none" xmlns="http://www.w3.org/2000/svg">
<path d="M16 0C16.5304 0 17.0391 0.210714 17.4142 0.585786C17.7893 0.960859 18 1.46957 18 2V23.172L22.586 18.586C22.9632 18.2217 23.4684 18.0201 23.9928 18.0247C24.5172 18.0292 25.0188 18.2395 25.3896 18.6104C25.7605 18.9812 25.9708 19.4828 25.9753 20.0072C25.9799 20.5316 25.7783 21.0368 25.414 21.414L17.414 29.414C17.0389 29.7889 16.5303 29.9996 16 29.9996C15.4697 29.9996 14.9611 29.7889 14.586 29.414L6.586 21.414C6.39498 21.2295 6.24262 21.0088 6.1378 20.7648C6.03298 20.5208 5.97781 20.2584 5.9755 19.9928C5.97319 19.7272 6.02379 19.4639 6.12436 19.2181C6.22492 18.9723 6.37342 18.749 6.56121 18.5612C6.749 18.3734 6.9723 18.2249 7.21809 18.1244C7.46388 18.0238 7.72724 17.9732 7.9928 17.9755C8.25836 17.9778 8.5208 18.033 8.76481 18.1378C9.00882 18.2426 9.22951 18.395 9.414 18.586L14 23.172V2C14 1.46957 14.2107 0.960859 14.5858 0.585786C14.9609 0.210714 15.4696 0 16 0ZM2 30C2.53043 30 3.03914 30.2107 3.41421 30.5858C3.78929 30.9609 4 31.4696 4 32V36H28V32C28 31.4696 28.2107 30.9609 28.5858 30.5858C28.9609 30.2107 29.4696 30 30 30C30.5304 30 31.0391 30.2107 31.4142 30.5858C31.7893 30.9609 32 31.4696 32 32V36C32 37.0609 31.5786 38.0783 30.8284 38.8284C30.0783 39.5786 29.0609 40 28 40H4C2.93913 40 1.92172 39.5786 1.17157 38.8284C0.421427 38.0783 0 37.0609 0 36V32C0 31.4696 0.210714 30.9609 0.585787 30.5858C0.96086 30.2107 1.46957 30 2 30Z" fill="white"/>
</svg>
