<svg width="42" height="42" viewBox="0 0 42 42" fill="none" xmlns="http://www.w3.org/2000/svg">
<path d="M8.75 19.25C9.67826 19.25 10.5685 19.6187 11.2249 20.2751C11.8813 20.9315 12.25 21.8217 12.25 22.75V26.25H29.75V22.75C29.75 21.8217 30.1187 20.9315 30.7751 20.2751C31.4315 19.6187 32.3217 19.25 33.25 19.25C34.1783 19.25 35.0685 19.6187 35.7249 20.2751C36.3813 20.9315 36.75 21.8217 36.75 22.75V29.75C36.75 30.6783 36.3813 31.5685 35.7249 32.2249C35.0685 32.8813 34.1783 33.25 33.25 33.25H8.75C7.82174 33.25 6.9315 32.8813 6.27513 32.2249C5.61875 31.5685 5.25 30.6783 5.25 29.75V22.75C5.25 21.8217 5.61875 20.9315 6.27513 20.2751C6.9315 19.6187 7.82174 19.25 8.75 19.25Z" stroke="white" stroke-width="3" stroke-linecap="round" stroke-linejoin="round"/>
<path d="M8.75 19.25V10.5C8.75 9.10761 9.30312 7.77226 10.2877 6.78769C11.2723 5.80312 12.6076 5.25 14 5.25H28C29.3924 5.25 30.7277 5.80312 31.7123 6.78769C32.6969 7.77226 33.25 9.10761 33.25 10.5V19.25" stroke="white" stroke-width="3" stroke-linecap="round" stroke-linejoin="round"/>
<path d="M10.5 33.25V36.75" stroke="white" stroke-width="3" stroke-linecap="round" stroke-linejoin="round"/>
<path d="M31.5 33.25V36.75" stroke="white" stroke-width="3" stroke-linecap="round" stroke-linejoin="round"/>
</svg>
