<svg width="40" height="40" viewBox="0 0 40 40" fill="none" xmlns="http://www.w3.org/2000/svg">
<path d="M34 2H6C3.79086 2 2 3.79086 2 6V34C2 36.2091 3.79086 38 6 38H34C36.2091 38 38 36.2091 38 34V6C38 3.79086 36.2091 2 34 2Z" stroke="white" stroke-width="3" stroke-linecap="round" stroke-linejoin="round"/>
<path d="M13 16C14.6569 16 16 14.6569 16 13C16 11.3431 14.6569 10 13 10C11.3431 10 10 11.3431 10 13C10 14.6569 11.3431 16 13 16Z" stroke="white" stroke-width="3" stroke-linecap="round" stroke-linejoin="round"/>
<path d="M38 26L28 16L6 38" stroke="white" stroke-width="3" stroke-linecap="round" stroke-linejoin="round"/>
</svg>
