<svg width="86" height="86" viewBox="0 0 86 86" fill="none" xmlns="http://www.w3.org/2000/svg">
<path fill-rule="evenodd" clip-rule="evenodd" d="M78.8334 42.9998C78.8334 23.2091 62.7908 7.1665 43.0001 7.1665C23.2093 7.1665 7.16675 23.2091 7.16675 42.9998C7.16675 62.7906 23.2093 78.8332 43.0001 78.8332C62.7908 78.8332 78.8334 62.7906 78.8334 42.9998ZM22.7297 22.7294C28.1057 17.3534 35.3972 14.3332 43.0001 14.3332C50.603 14.3332 57.8944 17.3534 63.2705 22.7294C68.6465 28.1055 71.6668 35.397 71.6668 42.9998C71.6668 50.6027 68.6465 57.8942 63.2705 63.2702C57.8944 68.6463 50.603 71.6665 43.0001 71.6665C35.3972 71.6665 28.1057 68.6463 22.7297 63.2702C17.3536 57.8942 14.3334 50.6027 14.3334 42.9998C14.3334 35.397 17.3536 28.1055 22.7297 22.7294ZM53.5018 28.4886C50.447 26.2763 46.7719 25.0846 43.0001 25.0832C41.1618 25.0832 39.3917 25.3591 37.7218 25.8715C39.295 26.5803 40.63 27.7284 41.5664 29.1778C42.5027 30.6271 43.0006 32.316 43.0001 34.0415C43.0052 36.0936 42.3053 38.0851 41.0177 39.6829C40.0479 40.8863 38.7889 41.8113 37.3693 42.3788L42.0428 54.9922C42.331 55.7178 42.4751 56.4907 42.4751 57.3109V57.6895H42.8457V56.8377C42.8457 56.3961 42.9898 55.7809 43.2779 54.9922L53.653 28.8241H53.9503C53.8027 28.71 53.6532 28.5982 53.5018 28.4886ZM57.2122 32.0989L45.1104 60.791C48.184 60.4253 51.1225 59.2677 53.631 57.4167C56.666 55.1773 58.9169 52.0372 60.0629 48.4437C61.2089 44.8503 61.1917 40.9868 60.0136 37.4037C59.3807 35.4788 58.4301 33.6876 57.2122 32.0989ZM40.0103 60.6665L33.0008 42.9574C31.9612 42.8353 30.9436 42.531 29.9964 42.0508C28.1661 41.123 26.71 39.5946 25.8717 37.7216C24.7606 41.326 24.8153 45.1891 26.028 48.7606C27.2407 52.3321 29.5497 55.4297 32.6258 57.6123C34.837 59.1811 37.3635 60.2195 40.0103 60.6665Z" fill="white"/>
</svg>
